<svg width="64" height="64" viewBox="0 0 64 64" fill="none" xmlns="http://www.w3.org/2000/svg">
  <defs>
    <linearGradient id="speedGradient" x1="0%" y1="0%" x2="100%" y2="100%">
      <stop offset="0%" style="stop-color:#8B5CF6;stop-opacity:1" />
      <stop offset="50%" style="stop-color:#A855F7;stop-opacity:1" />
      <stop offset="100%" style="stop-color:#EC4899;stop-opacity:1" />
    </linearGradient>
    <linearGradient id="whiteGradient" x1="0%" y1="0%" x2="100%" y2="100%">
      <stop offset="0%" style="stop-color:#ffffff;stop-opacity:1" />
      <stop offset="50%" style="stop-color:#f8fafc;stop-opacity:0.95" />
      <stop offset="100%" style="stop-color:#ffffff;stop-opacity:1" />
    </linearGradient>

  </defs>
  
  <!-- Background Circle with Enhanced Gradient -->
  <circle cx="32" cy="32" r="30" fill="url(#speedGradient)" stroke="url(#whiteGradient)" stroke-width="2"/>
  
  <!-- Speed Gauge Arc -->
  <path d="M 16 32 A 16 16 0 0 1 48 32" stroke="url(#whiteGradient)" stroke-width="4" fill="none" stroke-linecap="round"/>
  
  <!-- Speed Needle -->
  <line x1="32" y1="32" x2="44" y2="24" stroke="url(#whiteGradient)" stroke-width="4" stroke-linecap="round"/>
  
  <!-- Center Dot -->
  <circle cx="32" cy="32" r="4" fill="url(#whiteGradient)"/>
  
  <!-- Enhanced Speed Marks -->
  <g stroke="url(#whiteGradient)" stroke-width="2.5" stroke-linecap="round">
    <line x1="18" y1="30" x2="22" y2="28"/>
    <line x1="16" y1="32" x2="20" y2="32"/>
    <line x1="18" y1="34" x2="22" y2="36"/>
    
    <line x1="42" y1="28" x2="46" y2="30"/>
    <line x1="44" y1="32" x2="48" y2="32"/>
    <line x1="42" y1="36" x2="46" y2="34"/>
  </g>
  
  <!-- Enhanced WiFi Signal Lines -->
  <g stroke="url(#whiteGradient)" stroke-width="2.5" fill="none" stroke-linecap="round">
    <path d="M 26 44 Q 32 40 38 44"/>
    <path d="M 28 46 Q 32 44 36 46"/>
    <circle cx="32" cy="48" r="2" fill="url(#whiteGradient)"/>
  </g>
  
  <!-- Additional Speed Indicators -->
  <g stroke="url(#whiteGradient)" stroke-width="1.5" stroke-linecap="round">
    <line x1="20" y1="26" x2="21" y2="25"/>
    <line x1="24" y1="22" x2="25" y2="21"/>
    <line x1="39" y1="21" x2="40" y2="22"/>
    <line x1="43" y1="25" x2="44" y2="26"/>
  </g>
</svg>