<svg width="64" height="64" viewBox="0 0 64 64" fill="none" xmlns="http://www.w3.org/2000/svg">
  <defs>
    <linearGradient id="speedGradient" x1="0%" y1="0%" x2="100%" y2="100%">
      <stop offset="0%" style="stop-color:#8B5CF6;stop-opacity:1" />
      <stop offset="100%" style="stop-color:#EC4899;stop-opacity:1" />
    </linearGradient>
  </defs>
  
  <!-- Background Circle -->
  <circle cx="32" cy="32" r="30" fill="url(#speedGradient)" stroke="#fff" stroke-width="2"/>
  
  <!-- Speed Gauge Arc -->
  <path d="M 16 32 A 16 16 0 0 1 48 32" stroke="#fff" stroke-width="3" fill="none" stroke-linecap="round"/>
  
  <!-- Speed Needle -->
  <line x1="32" y1="32" x2="44" y2="24" stroke="#fff" stroke-width="3" stroke-linecap="round"/>
  
  <!-- Center Dot -->
  <circle cx="32" cy="32" r="3" fill="#fff"/>
  
  <!-- Speed Marks -->
  <line x1="18" y1="30" x2="22" y2="28" stroke="#fff" stroke-width="2" stroke-linecap="round"/>
  <line x1="16" y1="32" x2="20" y2="32" stroke="#fff" stroke-width="2" stroke-linecap="round"/>
  <line x1="18" y1="34" x2="22" y2="36" stroke="#fff" stroke-width="2" stroke-linecap="round"/>
  
  <line x1="42" y1="28" x2="46" y2="30" stroke="#fff" stroke-width="2" stroke-linecap="round"/>
  <line x1="44" y1="32" x2="48" y2="32" stroke="#fff" stroke-width="2" stroke-linecap="round"/>
  <line x1="42" y1="36" x2="46" y2="34" stroke="#fff" stroke-width="2" stroke-linecap="round"/>
  
  <!-- WiFi Signal Lines -->
  <path d="M 26 44 Q 32 40 38 44" stroke="#fff" stroke-width="2" fill="none" stroke-linecap="round"/>
  <path d="M 28 46 Q 32 44 36 46" stroke="#fff" stroke-width="2" fill="none" stroke-linecap="round"/>
  <circle cx="32" cy="48" r="1.5" fill="#fff"/>
</svg>